<?xml version="1.0" standalone="no"?>
<!DOCTYPE svg PUBLIC "-//W3C//DTD SVG 20010904//EN"
 "http://www.w3.org/TR/2001/REC-SVG-20010904/DTD/svg10.dtd">
<svg version="1.0" xmlns="http://www.w3.org/2000/svg"
 width="186.000000pt" height="187.000000pt" viewBox="0 0 186.000000 187.000000"
 preserveAspectRatio="xMidYMid meet">

<g transform="translate(0.000000,187.000000) scale(0.100000,-0.100000)"
fill="#000000" stroke="none">
<path d="M0 1395 c0 -407 2 -465 15 -465 13 0 15 26 15 173 0 94 2 294 3 442
l2 270 900 0 900 0 0 -895 0 -895 -447 -3 c-287 -1 -448 -6 -448 -12 0 -6 163
-10 460 -10 l460 0 0 930 0 930 -930 0 -930 0 0 -465z"/>
<path d="M866 1422 c-6 -10 -202 -489 -297 -729 -56 -139 -64 -152 -89 -158
-37 -8 -52 -27 -48 -62 l3 -28 138 -3 138 -3 -3 43 c-3 38 -6 43 -36 50 -26 7
-32 13 -27 26 3 9 20 52 37 95 l32 77 219 0 218 0 33 -72 c52 -115 52 -116 14
-126 -35 -9 -57 -45 -45 -76 6 -14 24 -16 144 -14 l138 3 3 28 c4 35 -11 54
-47 62 -30 6 -32 11 -345 792 l-41 103 -67 0 c-37 0 -69 -4 -72 -8z m158 -351
c48 -123 86 -228 86 -232 0 -5 -79 -9 -175 -9 -96 0 -175 4 -175 9 0 5 36 101
80 214 44 113 80 212 80 220 0 13 11 30 16 24 2 -1 41 -103 88 -226z"/>
</g>
</svg>
